<mxfile host="app.diagrams.net" agent="Mozilla/5.0 (Windows NT 10.0; Win64; x64) AppleWebKit/537.36 (KHTML, like Gecko) Chrome/133.0.0.0 Safari/537.36" version="26.1.0">
  <diagram name="Page-1" id="Gsom2zh9mioqi_vfal3D">
    <mxGraphModel dx="836" dy="434" grid="1" gridSize="10" guides="1" tooltips="1" connect="1" arrows="1" fold="1" page="1" pageScale="1" pageWidth="850" pageHeight="1100" math="0" shadow="0">
      <root>
        <mxCell id="0" />
        <mxCell id="1" parent="0" />
        <mxCell id="-OABxNX0DG0pFN7_NaT8-1" value="&lt;font style=&quot;font-size: 10px;&quot;&gt;User&lt;/font&gt;" style="rounded=0;whiteSpace=wrap;html=1;" vertex="1" parent="1">
          <mxGeometry x="10" y="20" width="70" height="20" as="geometry" />
        </mxCell>
        <mxCell id="-OABxNX0DG0pFN7_NaT8-2" value="" style="endArrow=none;html=1;rounded=0;entryX=0.5;entryY=1;entryDx=0;entryDy=0;exitX=0.5;exitY=0;exitDx=0;exitDy=0;" edge="1" parent="1" source="-OABxNX0DG0pFN7_NaT8-4" target="-OABxNX0DG0pFN7_NaT8-1">
          <mxGeometry width="50" height="50" relative="1" as="geometry">
            <mxPoint x="80" y="340" as="sourcePoint" />
            <mxPoint x="90" y="60" as="targetPoint" />
          </mxGeometry>
        </mxCell>
        <mxCell id="-OABxNX0DG0pFN7_NaT8-3" style="edgeStyle=orthogonalEdgeStyle;rounded=0;orthogonalLoop=1;jettySize=auto;html=1;exitX=0.5;exitY=1;exitDx=0;exitDy=0;" edge="1" parent="1" source="-OABxNX0DG0pFN7_NaT8-1" target="-OABxNX0DG0pFN7_NaT8-1">
          <mxGeometry relative="1" as="geometry" />
        </mxCell>
        <mxCell id="-OABxNX0DG0pFN7_NaT8-4" value="&lt;font style=&quot;font-size: 10px;&quot;&gt;User&lt;/font&gt;" style="rounded=0;whiteSpace=wrap;html=1;" vertex="1" parent="1">
          <mxGeometry x="10" y="340" width="70" height="20" as="geometry" />
        </mxCell>
        <mxCell id="-OABxNX0DG0pFN7_NaT8-5" value="&lt;font style=&quot;font-size: 10px;&quot;&gt;DecisionDesk App&lt;/font&gt;" style="rounded=0;whiteSpace=wrap;html=1;" vertex="1" parent="1">
          <mxGeometry x="120" y="30" width="90" height="20" as="geometry" />
        </mxCell>
        <mxCell id="-OABxNX0DG0pFN7_NaT8-6" value="&lt;font style=&quot;font-size: 10px;&quot;&gt;DecisionDesk App&lt;/font&gt;" style="rounded=0;whiteSpace=wrap;html=1;" vertex="1" parent="1">
          <mxGeometry x="120" y="340" width="90" height="20" as="geometry" />
        </mxCell>
        <mxCell id="-OABxNX0DG0pFN7_NaT8-7" value="" style="endArrow=none;html=1;rounded=0;entryX=0.5;entryY=1;entryDx=0;entryDy=0;exitX=0.5;exitY=0;exitDx=0;exitDy=0;" edge="1" parent="1" source="-OABxNX0DG0pFN7_NaT8-6" target="-OABxNX0DG0pFN7_NaT8-5">
          <mxGeometry width="50" height="50" relative="1" as="geometry">
            <mxPoint x="190" y="250" as="sourcePoint" />
            <mxPoint x="240" y="200" as="targetPoint" />
          </mxGeometry>
        </mxCell>
        <mxCell id="-OABxNX0DG0pFN7_NaT8-8" value="&lt;font style=&quot;font-size: 10px;&quot;&gt;Data Processing Service&lt;/font&gt;" style="rounded=0;whiteSpace=wrap;html=1;" vertex="1" parent="1">
          <mxGeometry x="250" y="30" width="90" height="30" as="geometry" />
        </mxCell>
        <mxCell id="-OABxNX0DG0pFN7_NaT8-9" value="&lt;font style=&quot;font-size: 10px;&quot;&gt;Data Processing Service&lt;/font&gt;" style="rounded=0;whiteSpace=wrap;html=1;" vertex="1" parent="1">
          <mxGeometry x="245" y="335" width="95" height="30" as="geometry" />
        </mxCell>
        <mxCell id="-OABxNX0DG0pFN7_NaT8-10" value="" style="endArrow=none;html=1;rounded=0;exitX=0.5;exitY=0;exitDx=0;exitDy=0;entryX=0.436;entryY=0.987;entryDx=0;entryDy=0;entryPerimeter=0;" edge="1" parent="1" source="-OABxNX0DG0pFN7_NaT8-9" target="-OABxNX0DG0pFN7_NaT8-8">
          <mxGeometry width="50" height="50" relative="1" as="geometry">
            <mxPoint x="380" y="230" as="sourcePoint" />
            <mxPoint x="370" y="80" as="targetPoint" />
          </mxGeometry>
        </mxCell>
        <mxCell id="-OABxNX0DG0pFN7_NaT8-11" value="&lt;font style=&quot;font-size: 10px;&quot;&gt;AI Model&lt;/font&gt;" style="rounded=0;whiteSpace=wrap;html=1;" vertex="1" parent="1">
          <mxGeometry x="390" y="37.5" width="60" height="15" as="geometry" />
        </mxCell>
        <mxCell id="-OABxNX0DG0pFN7_NaT8-12" value="&lt;font style=&quot;font-size: 10px;&quot;&gt;AI Model&lt;/font&gt;" style="rounded=0;whiteSpace=wrap;html=1;" vertex="1" parent="1">
          <mxGeometry x="385" y="340" width="70" height="20" as="geometry" />
        </mxCell>
        <mxCell id="-OABxNX0DG0pFN7_NaT8-14" value="" style="endArrow=none;html=1;rounded=0;entryX=0.5;entryY=1;entryDx=0;entryDy=0;exitX=0.5;exitY=0;exitDx=0;exitDy=0;" edge="1" parent="1" source="-OABxNX0DG0pFN7_NaT8-12" target="-OABxNX0DG0pFN7_NaT8-11">
          <mxGeometry width="50" height="50" relative="1" as="geometry">
            <mxPoint x="490" y="180" as="sourcePoint" />
            <mxPoint x="540" y="130" as="targetPoint" />
          </mxGeometry>
        </mxCell>
        <mxCell id="-OABxNX0DG0pFN7_NaT8-15" value="&lt;font style=&quot;font-size: 10px;&quot;&gt;Recommandation System&lt;/font&gt;" style="rounded=0;whiteSpace=wrap;html=1;labelBackgroundColor=default;" vertex="1" parent="1">
          <mxGeometry x="480" y="37.5" width="80" height="30" as="geometry" />
        </mxCell>
        <mxCell id="-OABxNX0DG0pFN7_NaT8-16" value="&lt;font style=&quot;font-size: 10px;&quot;&gt;Recommandation System&lt;/font&gt;" style="rounded=0;whiteSpace=wrap;html=1;" vertex="1" parent="1">
          <mxGeometry x="490" y="340" width="80" height="30" as="geometry" />
        </mxCell>
        <mxCell id="-OABxNX0DG0pFN7_NaT8-18" style="edgeStyle=orthogonalEdgeStyle;rounded=0;orthogonalLoop=1;jettySize=auto;html=1;exitX=0.5;exitY=1;exitDx=0;exitDy=0;" edge="1" parent="1" source="-OABxNX0DG0pFN7_NaT8-16" target="-OABxNX0DG0pFN7_NaT8-16">
          <mxGeometry relative="1" as="geometry" />
        </mxCell>
        <mxCell id="-OABxNX0DG0pFN7_NaT8-19" value="" style="endArrow=none;html=1;rounded=0;entryX=0.5;entryY=1;entryDx=0;entryDy=0;exitX=0.392;exitY=-0.067;exitDx=0;exitDy=0;exitPerimeter=0;" edge="1" parent="1" source="-OABxNX0DG0pFN7_NaT8-16" target="-OABxNX0DG0pFN7_NaT8-15">
          <mxGeometry width="50" height="50" relative="1" as="geometry">
            <mxPoint x="495" y="200" as="sourcePoint" />
            <mxPoint x="545" y="150" as="targetPoint" />
            <Array as="points">
              <mxPoint x="520" y="200" />
            </Array>
          </mxGeometry>
        </mxCell>
        <mxCell id="-OABxNX0DG0pFN7_NaT8-20" value="&lt;p data-pm-slice=&quot;1 1 []&quot;&gt;&lt;font style=&quot;font-size: 10px;&quot;&gt;User Profile DB&lt;/font&gt;&lt;/p&gt;" style="rounded=0;whiteSpace=wrap;html=1;" vertex="1" parent="1">
          <mxGeometry x="600" y="37.5" width="90" height="22.5" as="geometry" />
        </mxCell>
        <mxCell id="-OABxNX0DG0pFN7_NaT8-21" value="&lt;p data-pm-slice=&quot;1 1 []&quot;&gt;&lt;font style=&quot;font-size: 10px;&quot;&gt;User Profile DB&lt;/font&gt;&lt;/p&gt;" style="rounded=0;whiteSpace=wrap;html=1;" vertex="1" parent="1">
          <mxGeometry x="600" y="342.5" width="90" height="22.5" as="geometry" />
        </mxCell>
        <mxCell id="-OABxNX0DG0pFN7_NaT8-22" value="" style="endArrow=none;html=1;rounded=0;entryX=0.5;entryY=1;entryDx=0;entryDy=0;exitX=0.5;exitY=0;exitDx=0;exitDy=0;" edge="1" parent="1" source="-OABxNX0DG0pFN7_NaT8-21" target="-OABxNX0DG0pFN7_NaT8-20">
          <mxGeometry width="50" height="50" relative="1" as="geometry">
            <mxPoint x="620" y="200" as="sourcePoint" />
            <mxPoint x="670" y="150" as="targetPoint" />
          </mxGeometry>
        </mxCell>
        <mxCell id="-OABxNX0DG0pFN7_NaT8-23" value="&lt;p data-pm-slice=&quot;1 1 []&quot;&gt;&lt;font style=&quot;font-size: 10px;&quot;&gt;Learning System&lt;/font&gt;&lt;/p&gt;" style="rounded=0;whiteSpace=wrap;html=1;" vertex="1" parent="1">
          <mxGeometry x="720" y="37.5" width="90" height="22.5" as="geometry" />
        </mxCell>
        <mxCell id="-OABxNX0DG0pFN7_NaT8-24" value="&lt;p data-pm-slice=&quot;1 1 []&quot;&gt;&lt;font style=&quot;font-size: 10px;&quot;&gt;Learning System&lt;/font&gt;&lt;/p&gt;" style="rounded=0;whiteSpace=wrap;html=1;" vertex="1" parent="1">
          <mxGeometry x="720" y="340" width="90" height="22.5" as="geometry" />
        </mxCell>
        <mxCell id="-OABxNX0DG0pFN7_NaT8-25" value="" style="endArrow=none;html=1;rounded=0;entryX=0.5;entryY=1;entryDx=0;entryDy=0;exitX=0.5;exitY=0;exitDx=0;exitDy=0;" edge="1" parent="1" source="-OABxNX0DG0pFN7_NaT8-24" target="-OABxNX0DG0pFN7_NaT8-23">
          <mxGeometry width="50" height="50" relative="1" as="geometry">
            <mxPoint x="720" y="210" as="sourcePoint" />
            <mxPoint x="770" y="160" as="targetPoint" />
          </mxGeometry>
        </mxCell>
        <mxCell id="-OABxNX0DG0pFN7_NaT8-26" value="" style="endArrow=classic;html=1;rounded=0;" edge="1" parent="1">
          <mxGeometry relative="1" as="geometry">
            <mxPoint x="50" y="100" as="sourcePoint" />
            <mxPoint x="160" y="100" as="targetPoint" />
          </mxGeometry>
        </mxCell>
        <mxCell id="-OABxNX0DG0pFN7_NaT8-27" value="user intereaction&lt;div&gt;CV upload&lt;/div&gt;" style="edgeLabel;resizable=0;html=1;;align=center;verticalAlign=middle;" connectable="0" vertex="1" parent="-OABxNX0DG0pFN7_NaT8-26">
          <mxGeometry relative="1" as="geometry">
            <mxPoint x="-10" as="offset" />
          </mxGeometry>
        </mxCell>
        <mxCell id="-OABxNX0DG0pFN7_NaT8-28" value="" style="endArrow=classic;html=1;rounded=0;" edge="1" parent="1">
          <mxGeometry relative="1" as="geometry">
            <mxPoint x="290" y="140" as="sourcePoint" />
            <mxPoint x="420" y="140" as="targetPoint" />
          </mxGeometry>
        </mxCell>
        <mxCell id="-OABxNX0DG0pFN7_NaT8-29" value="Resume&lt;div&gt;Data Extraction&lt;/div&gt;" style="edgeLabel;resizable=0;html=1;;align=center;verticalAlign=middle;" connectable="0" vertex="1" parent="-OABxNX0DG0pFN7_NaT8-28">
          <mxGeometry relative="1" as="geometry" />
        </mxCell>
        <mxCell id="-OABxNX0DG0pFN7_NaT8-30" value="" style="endArrow=classic;html=1;rounded=0;" edge="1" parent="1">
          <mxGeometry relative="1" as="geometry">
            <mxPoint x="170" y="120" as="sourcePoint" />
            <mxPoint x="290" y="120" as="targetPoint" />
          </mxGeometry>
        </mxCell>
        <mxCell id="-OABxNX0DG0pFN7_NaT8-31" value="Data&amp;nbsp;&lt;div&gt;Preprocessing&lt;/div&gt;" style="edgeLabel;resizable=0;html=1;;align=center;verticalAlign=middle;" connectable="0" vertex="1" parent="-OABxNX0DG0pFN7_NaT8-30">
          <mxGeometry relative="1" as="geometry" />
        </mxCell>
        <mxCell id="-OABxNX0DG0pFN7_NaT8-36" value="" style="endArrow=classic;html=1;rounded=0;" edge="1" parent="1">
          <mxGeometry relative="1" as="geometry">
            <mxPoint x="420" y="120" as="sourcePoint" />
            <mxPoint x="520" y="120" as="targetPoint" />
          </mxGeometry>
        </mxCell>
        <mxCell id="-OABxNX0DG0pFN7_NaT8-37" value="AI Analysed&lt;div&gt;Data&lt;/div&gt;" style="edgeLabel;resizable=0;html=1;;align=center;verticalAlign=middle;" connectable="0" vertex="1" parent="-OABxNX0DG0pFN7_NaT8-36">
          <mxGeometry relative="1" as="geometry" />
        </mxCell>
        <mxCell id="-OABxNX0DG0pFN7_NaT8-38" value="" style="endArrow=classic;html=1;rounded=0;" edge="1" parent="1">
          <mxGeometry relative="1" as="geometry">
            <mxPoint x="50" y="180" as="sourcePoint" />
            <mxPoint x="520" y="180" as="targetPoint" />
          </mxGeometry>
        </mxCell>
        <mxCell id="-OABxNX0DG0pFN7_NaT8-39" value="Feedback and&lt;div&gt;Recommendations&lt;/div&gt;" style="edgeLabel;resizable=0;html=1;;align=center;verticalAlign=middle;" connectable="0" vertex="1" parent="-OABxNX0DG0pFN7_NaT8-38">
          <mxGeometry relative="1" as="geometry">
            <mxPoint x="-55" as="offset" />
          </mxGeometry>
        </mxCell>
        <mxCell id="-OABxNX0DG0pFN7_NaT8-40" value="" style="endArrow=classic;html=1;rounded=0;" edge="1" parent="1">
          <mxGeometry relative="1" as="geometry">
            <mxPoint x="520" y="160" as="sourcePoint" />
            <mxPoint x="640" y="160" as="targetPoint" />
          </mxGeometry>
        </mxCell>
        <mxCell id="-OABxNX0DG0pFN7_NaT8-41" value="Update&lt;div&gt;Preferences&lt;/div&gt;" style="edgeLabel;resizable=0;html=1;;align=center;verticalAlign=middle;" connectable="0" vertex="1" parent="-OABxNX0DG0pFN7_NaT8-40">
          <mxGeometry relative="1" as="geometry" />
        </mxCell>
        <mxCell id="-OABxNX0DG0pFN7_NaT8-42" value="" style="endArrow=classic;html=1;rounded=0;" edge="1" parent="1">
          <mxGeometry relative="1" as="geometry">
            <mxPoint x="762.1052631578947" y="260" as="sourcePoint" />
            <mxPoint x="520" y="260" as="targetPoint" />
          </mxGeometry>
        </mxCell>
        <mxCell id="-OABxNX0DG0pFN7_NaT8-43" value="Adaption Data" style="edgeLabel;resizable=0;html=1;;align=center;verticalAlign=middle;" connectable="0" vertex="1" parent="-OABxNX0DG0pFN7_NaT8-42">
          <mxGeometry relative="1" as="geometry">
            <mxPoint x="-31" as="offset" />
          </mxGeometry>
        </mxCell>
        <mxCell id="-OABxNX0DG0pFN7_NaT8-44" value="" style="endArrow=classic;html=1;rounded=0;" edge="1" parent="1">
          <mxGeometry relative="1" as="geometry">
            <mxPoint x="520" y="220" as="sourcePoint" />
            <mxPoint x="760" y="220" as="targetPoint" />
          </mxGeometry>
        </mxCell>
        <mxCell id="-OABxNX0DG0pFN7_NaT8-45" value="Analyse Feedback" style="edgeLabel;resizable=0;html=1;;align=center;verticalAlign=middle;" connectable="0" vertex="1" parent="-OABxNX0DG0pFN7_NaT8-44">
          <mxGeometry relative="1" as="geometry">
            <mxPoint x="30" as="offset" />
          </mxGeometry>
        </mxCell>
        <mxCell id="-OABxNX0DG0pFN7_NaT8-46" value="" style="endArrow=classic;html=1;rounded=0;" edge="1" parent="1">
          <mxGeometry relative="1" as="geometry">
            <mxPoint x="521" y="280" as="sourcePoint" />
            <mxPoint x="171" y="280" as="targetPoint" />
          </mxGeometry>
        </mxCell>
        <mxCell id="-OABxNX0DG0pFN7_NaT8-47" value="Personalized&lt;div&gt;Recommendations&lt;/div&gt;" style="edgeLabel;resizable=0;html=1;;align=center;verticalAlign=middle;" connectable="0" vertex="1" parent="-OABxNX0DG0pFN7_NaT8-46">
          <mxGeometry relative="1" as="geometry">
            <mxPoint as="offset" />
          </mxGeometry>
        </mxCell>
        <mxCell id="-OABxNX0DG0pFN7_NaT8-48" value="" style="endArrow=classic;html=1;rounded=0;" edge="1" parent="1">
          <mxGeometry relative="1" as="geometry">
            <mxPoint x="160" y="230" as="sourcePoint" />
            <mxPoint x="50" y="230" as="targetPoint" />
          </mxGeometry>
        </mxCell>
        <mxCell id="-OABxNX0DG0pFN7_NaT8-49" value="Display&lt;div&gt;Results&lt;/div&gt;" style="edgeLabel;resizable=0;html=1;;align=center;verticalAlign=middle;" connectable="0" vertex="1" parent="-OABxNX0DG0pFN7_NaT8-48">
          <mxGeometry relative="1" as="geometry" />
        </mxCell>
      </root>
    </mxGraphModel>
  </diagram>
</mxfile>
